o convex_0
v 0.032332 -0.005337 0.036195
v 0.089358 0.028879 0.061546
v 0.089358 0.026343 0.064081
v 0.074152 0.003534 0.047608
v 0.056409 0.009870 0.036195
v 0.064009 0.002268 0.057743
v 0.036135 0.007337 0.037464
v 0.086820 0.026343 0.050138
v 0.051340 -0.006604 0.036195
v 0.079221 0.027609 0.061546
v 0.045000 0.002268 0.048874
v 0.090623 0.017471 0.057743
v 0.086820 0.020008 0.048874
v 0.080486 0.028879 0.053941
v 0.080486 0.007337 0.059007
v 0.072880 0.011136 0.062812
v 0.042469 -0.005337 0.045072
v 0.070349 -0.000268 0.051402
v 0.038672 0.008603 0.036195
v 0.031066 0.002268 0.037464
v 0.048809 -0.007873 0.040000
v 0.093167 0.025076 0.056471
v 0.057681 0.002268 0.036195
v 0.072880 0.020008 0.061546
v 0.081752 0.007337 0.052669
v 0.090623 0.021274 0.062812
v 0.079221 0.028879 0.059007
v 0.086820 0.016205 0.050138
v 0.076683 0.009870 0.062812
v 0.041203 -0.002801 0.046336
v 0.079221 0.022540 0.064081
v 0.079221 0.026343 0.050138
f 19 14 32 
f 1 5 9 
f 3 2 10 
f 5 8 13 
f 2 8 14 
f 11 6 16 
f 9 4 18 
f 15 6 18 
f 5 1 19 
f 10 7 20 
f 19 1 20 
f 7 19 20 
f 1 9 21 
f 17 1 21 
f 6 17 21 
f 9 18 21 
f 18 6 21 
f 2 3 22 
f 8 2 22 
f 13 8 22 
f 9 5 23 
f 5 13 23 
f 11 16 24 
f 10 20 24 
f 20 11 24 
f 12 15 25 
f 18 4 25 
f 15 18 25 
f 15 12 26 
f 22 3 26 
f 12 22 26 
f 10 2 27 
f 7 10 27 
f 2 14 27 
f 19 7 27 
f 14 19 27 
f 4 9 28 
f 22 12 28 
f 13 22 28 
f 9 23 28 
f 23 13 28 
f 12 25 28 
f 25 4 28 
f 6 15 29 
f 16 6 29 
f 15 26 29 
f 26 3 29 
f 6 11 30 
f 1 17 30 
f 17 6 30 
f 11 20 30 
f 20 1 30 
f 3 10 31 
f 10 24 31 
f 24 16 31 
f 29 3 31 
f 16 29 31 
f 8 5 32 
f 14 8 32 
f 5 19 32 
o convex_1
v 0.028523 -0.005339 -0.034783
v 0.074151 0.004796 0.032390
v 0.055133 0.008600 0.036195
v 0.003180 -0.018014 0.005768
v -0.000634 0.016203 -0.010699
v 0.074151 0.009864 -0.038587
v 0.065279 -0.014210 -0.004364
v 0.020917 -0.006607 0.036195
v -0.000634 0.013668 0.018439
v 0.072884 0.013671 0.018447
v 0.060206 -0.012943 0.026048
v 0.074151 -0.005336 -0.037321
v -0.000634 -0.016746 -0.008161
v 0.039921 -0.018014 -0.014503
v -0.000634 0.009864 -0.019573
v 0.074151 -0.005336 0.029852
v 0.023457 0.011132 0.033649
v 0.037388 0.009864 -0.034783
v -0.000634 -0.010410 0.014642
v 0.038654 -0.019282 0.004503
v 0.034863 -0.012943 -0.029705
v 0.072884 0.013671 -0.003098
v 0.057673 0.013671 0.028586
v 0.050067 -0.006607 0.036195
v 0.029790 -0.010410 0.033649
v 0.074151 -0.010407 0.012096
v 0.017118 0.004796 0.036195
v 0.001906 0.016203 0.009565
v 0.046260 -0.005339 -0.038587
v -0.000634 -0.007875 -0.017035
v 0.074151 0.011132 -0.037321
v 0.014585 -0.019282 -0.006895
f 53 46 64 
f 38 34 44 
f 41 37 45 
f 44 39 46 
f 45 37 47 
f 44 34 48 
f 47 37 50 
f 33 47 50 
f 36 40 51 
f 45 36 51 
f 41 45 51 
f 39 43 52 
f 46 39 52 
f 45 33 53 
f 44 46 53 
f 35 34 55 
f 34 42 55 
f 49 35 55 
f 34 35 56 
f 35 40 56 
f 48 34 56 
f 43 48 56 
f 40 36 57 
f 52 43 57 
f 36 52 57 
f 56 40 57 
f 43 56 57 
f 43 39 58 
f 39 44 58 
f 48 43 58 
f 44 48 58 
f 40 35 59 
f 35 49 59 
f 49 41 59 
f 51 40 59 
f 41 51 59 
f 37 41 60 
f 41 49 60 
f 54 37 60 
f 42 54 60 
f 55 42 60 
f 49 55 60 
f 38 44 61 
f 50 38 61 
f 33 50 61 
f 53 33 61 
f 44 53 61 
f 33 45 62 
f 47 33 62 
f 45 47 62 
f 34 38 63 
f 42 34 63 
f 50 37 63 
f 38 50 63 
f 37 54 63 
f 54 42 63 
f 36 45 64 
f 52 36 64 
f 46 52 64 
f 45 53 64 
o convex_2
v 0.119784 0.042822 -0.036054
v 0.093170 -0.002807 -0.039859
v 0.093170 -0.002807 -0.029720
v 0.119784 0.021277 -0.038591
v 0.110910 0.040288 -0.042393
v 0.093170 0.014946 -0.029720
v 0.107110 0.006072 -0.029720
v 0.107110 0.004805 -0.042393
v 0.093170 0.011145 -0.042393
v 0.118515 0.037754 -0.043663
v 0.113445 0.040288 -0.032255
v 0.118515 0.027612 -0.032255
v 0.094438 0.007339 -0.027184
v 0.108376 0.003538 -0.033525
v 0.099508 0.006072 -0.043663
v 0.117249 0.022544 -0.043663
v 0.113445 0.044094 -0.034793
v 0.093170 0.016213 -0.037322
v 0.113445 0.040288 -0.043663
v 0.119784 0.022544 -0.034793
v 0.118515 0.036487 -0.032255
v 0.109644 0.040288 -0.036054
v 0.118515 0.044094 -0.041127
v 0.096973 -0.002807 -0.036054
v 0.119784 0.025078 -0.042393
v 0.108376 0.004805 -0.041127
v 0.093170 0.013679 -0.028454
v 0.096973 -0.000268 -0.028454
v 0.093170 0.001004 -0.042393
v 0.096973 -0.002807 -0.030988
v 0.113445 0.044094 -0.041127
v 0.108376 0.016213 -0.029720
f 85 77 96 
f 66 67 70 
f 66 70 73 
f 79 74 80 
f 72 79 80 
f 75 65 81 
f 73 70 82 
f 69 73 82 
f 73 69 83 
f 79 73 83 
f 74 79 83 
f 68 65 84 
f 76 71 84 
f 71 78 84 
f 78 68 84 
f 65 75 85 
f 75 77 85 
f 84 65 85 
f 76 84 85 
f 70 81 86 
f 82 70 86 
f 69 82 86 
f 65 74 87 
f 81 65 87 
f 74 83 87 
f 67 66 88 
f 65 68 89 
f 74 65 89 
f 80 74 89 
f 80 89 90 
f 66 72 90 
f 68 78 90 
f 72 80 90 
f 88 66 90 
f 78 88 90 
f 89 68 90 
f 70 67 91 
f 67 77 91 
f 77 75 91 
f 81 70 91 
f 75 81 91 
f 77 67 92 
f 71 77 92 
f 72 66 93 
f 66 73 93 
f 79 72 93 
f 73 79 93 
f 78 71 94 
f 67 88 94 
f 88 78 94 
f 92 67 94 
f 71 92 94 
f 83 69 95 
f 69 86 95 
f 86 81 95 
f 81 87 95 
f 87 83 95 
f 71 76 96 
f 77 71 96 
f 76 85 96 
o convex_3
v 0.128656 0.025076 -0.013243
v 0.093170 -0.002807 -0.019578
v 0.093170 -0.002807 -0.008172
v 0.122316 0.046629 -0.013243
v 0.126120 0.037749 -0.022114
v 0.093170 0.013675 -0.019578
v 0.114712 0.003532 -0.018308
v 0.093170 0.011139 -0.006903
v 0.117248 0.012407 -0.008172
v 0.126120 0.039022 -0.009439
v 0.109650 0.004800 -0.022114
v 0.122316 0.044088 -0.020845
v 0.126120 0.022540 -0.020845
v 0.103311 -0.002807 -0.010707
v 0.100778 0.007336 -0.022114
v 0.115980 0.006068 -0.009439
v 0.127388 0.045361 -0.018308
v 0.104579 0.002265 -0.006903
v 0.093170 0.013675 -0.009439
v 0.121048 0.044088 -0.010707
v 0.093170 0.011139 -0.020845
v 0.102043 -0.002807 -0.018308
v 0.119784 0.044088 -0.018308
v 0.121048 0.039022 -0.022114
v 0.127388 0.045361 -0.011974
v 0.127388 0.025076 -0.010707
v 0.128656 0.033951 -0.018308
v 0.126120 0.020019 -0.018308
v 0.093170 -0.001539 -0.020845
v 0.115980 0.004800 -0.011974
v 0.119784 0.016211 -0.022114
v 0.104579 0.008604 -0.006903
f 114 105 128 
f 98 99 102 
f 102 99 104 
f 99 98 110 
f 101 107 111 
f 108 100 113 
f 101 108 113 
f 104 99 114 
f 99 110 114 
f 112 105 114 
f 110 112 114 
f 102 104 115 
f 115 104 116 
f 104 106 116 
f 100 115 116 
f 98 102 117 
f 102 108 117 
f 107 103 118 
f 110 98 118 
f 103 110 118 
f 100 108 119 
f 108 102 119 
f 115 100 119 
f 102 115 119 
f 108 101 120 
f 101 111 120 
f 117 108 120 
f 111 117 120 
f 113 100 121 
f 116 106 121 
f 100 116 121 
f 106 105 122 
f 112 97 122 
f 105 112 122 
f 97 121 122 
f 121 106 122 
f 97 109 123 
f 109 101 123 
f 101 113 123 
f 121 97 123 
f 113 121 123 
f 109 97 124 
f 103 109 124 
f 111 107 125 
f 98 117 125 
f 117 111 125 
f 118 98 125 
f 107 118 125 
f 110 103 126 
f 97 112 126 
f 112 110 126 
f 124 97 126 
f 103 124 126 
f 107 101 127 
f 103 107 127 
f 101 109 127 
f 109 103 127 
f 106 104 128 
f 105 106 128 
f 104 114 128 
o convex_4
v 0.131189 0.030147 0.000703
v 0.093167 -0.004064 0.003239
v 0.093167 -0.004064 0.009574
v 0.127385 0.049159 0.007040
v 0.117247 0.004804 0.012110
v 0.093167 0.012411 0.000703
v 0.093167 0.011140 0.013378
v 0.131189 0.044089 0.012110
v 0.114712 0.003538 0.000703
v 0.131189 0.022545 0.009574
v 0.126120 0.044089 0.000703
v 0.093167 -0.001532 -0.000565
v 0.105847 -0.000266 0.013378
v 0.124851 0.020013 0.013378
v 0.132458 0.045355 0.003239
v 0.104578 -0.002798 0.003239
v 0.126120 0.045355 0.012110
v 0.093167 0.013677 0.010841
v 0.118512 0.013677 -0.000565
v 0.132458 0.025077 0.004505
v 0.094440 0.009873 -0.000565
v 0.126120 0.047887 0.003239
v 0.093167 -0.001532 0.013378
v 0.118512 0.006070 0.001971
v 0.132458 0.027609 0.010841
v 0.104578 -0.002798 0.010841
v 0.093167 0.013677 0.001971
v 0.107117 0.001000 -0.000565
v 0.119782 0.025077 0.013378
v 0.128654 0.020013 0.001971
v 0.123585 0.045355 0.009574
v 0.132458 0.046621 0.008308
f 153 143 160 
f 130 131 134 
f 134 131 135 
f 130 134 140 
f 133 138 142 
f 135 141 142 
f 141 133 142 
f 129 139 143 
f 131 130 144 
f 137 133 144 
f 130 140 144 
f 136 132 145 
f 134 135 146 
f 135 145 146 
f 139 129 147 
f 129 143 148 
f 134 139 149 
f 140 134 149 
f 139 147 149 
f 147 140 149 
f 139 134 150 
f 132 143 150 
f 143 139 150 
f 135 131 151 
f 141 135 151 
f 133 137 152 
f 138 133 152 
f 136 142 153 
f 142 138 153 
f 138 148 153 
f 148 143 153 
f 133 141 154 
f 131 144 154 
f 144 133 154 
f 151 131 154 
f 141 151 154 
f 134 146 155 
f 150 134 155 
f 137 144 156 
f 144 140 156 
f 147 137 156 
f 140 147 156 
f 135 142 157 
f 142 136 157 
f 145 135 157 
f 136 145 157 
f 147 129 158 
f 137 147 158 
f 129 148 158 
f 148 138 158 
f 152 137 158 
f 138 152 158 
f 145 132 159 
f 146 145 159 
f 132 150 159 
f 155 146 159 
f 150 155 159 
f 132 136 160 
f 143 132 160 
f 136 153 160 
o convex_5
v 0.127388 0.035218 0.031123
v 0.093167 -0.002807 0.023520
v 0.093167 -0.002807 0.031123
v 0.118515 0.045361 0.033657
v 0.093167 0.013675 0.020986
v 0.114713 0.007336 0.023520
v 0.123583 0.042825 0.024788
v 0.115979 0.012407 0.036195
v 0.093167 0.013675 0.033657
v 0.124852 0.044088 0.036195
v 0.095706 0.002265 0.019716
v 0.126119 0.022540 0.028588
v 0.113443 0.004800 0.033657
v 0.093167 0.002265 0.034925
v 0.126119 0.025076 0.034925
v 0.126119 0.032678 0.024788
v 0.121050 0.046629 0.027323
v 0.102044 -0.001539 0.023520
v 0.118515 0.042825 0.036195
v 0.100778 -0.001539 0.033657
v 0.126119 0.046629 0.028588
v 0.093167 0.014943 0.022252
v 0.105846 0.006068 0.036195
v 0.114713 0.013675 0.022252
v 0.094440 0.008604 0.019716
v 0.093167 0.014943 0.032391
v 0.093167 0.008604 0.034925
v 0.119781 0.042825 0.024788
v 0.114713 0.006068 0.024788
v 0.122317 0.018746 0.024788
v 0.126119 0.033951 0.036195
v 0.102044 0.000997 0.020986
f 171 184 192 
f 162 163 165 
f 165 163 169 
f 169 163 174 
f 172 161 175 
f 168 173 175 
f 173 172 175 
f 161 172 176 
f 163 162 178 
f 168 170 179 
f 170 164 179 
f 174 163 180 
f 163 178 180 
f 178 173 180 
f 170 161 181 
f 164 170 181 
f 161 176 181 
f 176 167 181 
f 177 164 181 
f 167 177 181 
f 165 169 182 
f 164 177 182 
f 177 165 182 
f 173 168 183 
f 168 179 183 
f 180 173 183 
f 174 180 183 
f 167 176 184 
f 162 165 185 
f 171 162 185 
f 184 171 185 
f 167 184 185 
f 179 164 186 
f 169 179 186 
f 164 182 186 
f 182 169 186 
f 169 174 187 
f 179 169 187 
f 183 179 187 
f 174 183 187 
f 165 177 188 
f 177 167 188 
f 185 165 188 
f 167 185 188 
f 172 173 189 
f 178 166 189 
f 173 178 189 
f 176 172 190 
f 166 184 190 
f 184 176 190 
f 189 166 190 
f 172 189 190 
f 170 168 191 
f 161 170 191 
f 168 175 191 
f 175 161 191 
f 162 171 192 
f 178 162 192 
f 166 178 192 
f 184 166 192 
o convex_6
v 0.093165 0.014937 -0.029717
v 0.076692 -0.006607 -0.015780
v 0.077959 -0.006607 -0.015780
v 0.093165 -0.001538 -0.041122
v 0.074155 0.009867 -0.038589
v 0.093165 0.011135 -0.006909
v 0.074155 0.009867 -0.008175
v 0.093165 -0.002805 -0.008175
v 0.074155 -0.005340 -0.037319
v 0.074155 -0.005340 -0.006909
v 0.090629 0.014937 -0.039855
v 0.075424 0.012402 -0.030984
v 0.089361 0.013670 -0.009442
v 0.093165 -0.002805 -0.039855
v 0.093165 0.009867 -0.042392
v 0.074155 -0.002805 -0.039855
v 0.075424 0.006065 -0.005639
v 0.083028 -0.002805 -0.005639
v 0.093165 -0.004072 -0.011978
v 0.088094 0.014937 -0.032250
v 0.077959 -0.006607 -0.009442
v 0.091896 0.000997 -0.042392
v 0.074155 0.006065 -0.039855
v 0.079226 -0.005340 -0.036053
v 0.081761 0.012402 -0.010712
v 0.093165 0.013670 -0.009442
v 0.074155 0.011135 -0.037319
v 0.093165 -0.001538 -0.006909
v 0.079226 -0.006607 -0.014511
v 0.085559 0.003532 -0.005639
v 0.093165 0.014937 -0.039855
v 0.076692 0.009867 -0.006909
f 199 209 224 
f 196 193 198 
f 196 198 200 
f 195 194 201 
f 199 197 201 
f 199 201 202 
f 201 194 202 
f 196 200 206 
f 193 196 207 
f 197 203 207 
f 201 197 208 
f 196 206 208 
f 206 201 208 
f 199 202 209 
f 209 202 210 
f 206 200 211 
f 193 203 212 
f 203 204 212 
f 205 193 212 
f 194 195 213 
f 202 194 213 
f 210 202 213 
f 200 210 213 
f 211 200 213 
f 207 196 214 
f 196 208 214 
f 214 208 215 
f 197 207 215 
f 208 197 215 
f 207 214 215 
f 195 201 216 
f 201 206 216 
f 204 199 217 
f 199 205 217 
f 212 204 217 
f 205 212 217 
f 198 193 218 
f 193 205 218 
f 205 198 218 
f 197 199 219 
f 203 197 219 
f 199 204 219 
f 204 203 219 
f 200 198 220 
f 210 200 220 
f 206 211 221 
f 213 195 221 
f 211 213 221 
f 195 216 221 
f 216 206 221 
f 198 209 222 
f 209 210 222 
f 220 198 222 
f 210 220 222 
f 203 193 223 
f 193 207 223 
f 207 203 223 
f 198 205 224 
f 205 199 224 
f 209 198 224 
o convex_7
v 0.093165 0.014937 0.031120
v 0.079226 -0.006607 0.003242
v 0.080494 -0.006607 0.003242
v 0.091896 0.013670 0.001974
v 0.074155 0.011135 0.029852
v 0.093165 -0.002805 0.031120
v 0.074155 0.009867 0.001974
v 0.074155 -0.005340 0.029852
v 0.093165 -0.001538 -0.000562
v 0.074155 -0.005340 0.000706
v 0.091896 0.002265 0.034924
v 0.093165 0.008600 -0.000562
v 0.074155 0.007333 0.032388
v 0.093165 -0.004072 0.001974
v 0.076692 0.012402 0.024785
v 0.077959 0.006065 -0.000562
v 0.089361 0.012402 0.033656
v 0.074155 -0.002805 0.032388
v 0.080494 -0.005340 0.028585
v 0.089361 0.014937 0.026049
v 0.088094 -0.005340 0.007045
v 0.093165 -0.001538 0.033656
v 0.074155 -0.006607 0.009578
v 0.081761 -0.004072 -0.000562
v 0.093165 0.012402 0.000706
v 0.083028 0.012402 0.005778
v 0.093165 0.006065 0.034924
v 0.080494 -0.006607 0.009578
v 0.090629 0.014937 0.031120
v 0.077959 0.009867 0.000706
v 0.074155 0.007333 0.000706
v 0.076692 -0.001538 -0.000562
f 255 240 256 
f 229 231 232 
f 225 230 233 
f 227 226 234 
f 232 231 234 
f 225 233 236 
f 229 232 237 
f 233 230 238 
f 231 229 239 
f 236 233 240 
f 229 237 241 
f 237 232 242 
f 235 237 242 
f 225 228 244 
f 227 238 245 
f 238 230 245 
f 230 225 246 
f 242 232 246 
f 235 242 246 
f 243 230 246 
f 232 243 246 
f 226 227 247 
f 234 226 247 
f 232 234 247 
f 227 234 248 
f 238 227 248 
f 233 238 248 
f 240 233 248 
f 228 225 249 
f 225 236 249 
f 236 240 249 
f 228 231 250 
f 231 239 250 
f 244 228 250 
f 239 244 250 
f 237 235 251 
f 225 241 251 
f 241 237 251 
f 246 225 251 
f 235 246 251 
f 230 243 252 
f 243 232 252 
f 227 245 252 
f 245 230 252 
f 247 227 252 
f 232 247 252 
f 239 229 253 
f 241 225 253 
f 229 241 253 
f 225 244 253 
f 244 239 253 
f 231 228 254 
f 228 249 254 
f 249 240 254 
f 234 231 255 
f 231 254 255 
f 254 240 255 
f 248 234 256 
f 240 248 256 
f 234 255 256 
